<svg viewBox="0 0 24 24" fill="none" xmlns="http://www.w3.org/2000/svg" id="Add-Box--Streamline-Outlined-Material" height="24" width="24">
  <desc>
    Add Box Streamline Icon: https://streamlinehq.com
  </desc>
  <g id="add-box">
    <path id="Vector" d="M11.25 17h1.5v-4.25H17v-1.5h-4.25V7h-1.5v4.25H7v1.5h4.25V17ZM4.5 21c-0.4 0 -0.75 -0.15 -1.05 -0.45 -0.3 -0.3 -0.45 -0.65 -0.45 -1.05V4.5c0 -0.4 0.15 -0.75 0.45 -1.05C3.75 3.15 4.1 3 4.5 3h15c0.4 0 0.75 0.15 1.05 0.45 0.3 0.3 0.45 0.65 0.45 1.05v15c0 0.4 -0.15 0.75 -0.45 1.05 -0.3 0.3 -0.65 0.45 -1.05 0.45H4.5Zm0 -1.5h15V4.5H4.5v15Z" fill="#000000" stroke-width="0.5"></path>
  </g>
</svg>