<svg xmlns="http://www.w3.org/2000/svg" fill="none" viewBox="0 0 24 24" id="Memory--Streamline-Outlined-Material" height="24" width="24">
  <desc>
    Memory Streamline Icon: https://streamlinehq.com
  </desc>
  <path fill="#ff2400" d="M9.425 14.575V9.45H14.55v5.125H9.425Zm1.5 -1.5h2.125V10.95h-2.125v2.125ZM9 21v-2h-2.5c-0.4 0 -0.75 -0.15 -1.05 -0.45 -0.3 -0.3 -0.45 -0.65 -0.45 -1.05v-2.5H3v-1.5h2v-3.1H3v-1.5h2v-2.5c0 -0.4 0.15 -0.75 0.45 -1.05 0.3 -0.3 0.65 -0.45 1.05 -0.45h2.5V3h1.5v1.9h3.1V3h1.5v1.9h2.5c0.4 0 0.75 0.15 1.05 0.45 0.3 0.3 0.45 0.65 0.45 1.05v2.5H21v1.5h-1.9V13.5H21v1.5h-1.9v2.5c0 0.4 -0.15 0.75 -0.45 1.05 -0.3 0.3 -0.65 0.45 -1.05 0.45h-2.5v2h-1.5v-2H10.5v2h-1.5Zm8.6 -3.5V6.4H6.5V17.5h11.1Z" stroke-width="0.5"></path>
</svg> 