<svg xmlns="http://www.w3.org/2000/svg" viewBox="0 0 16 16" fill="#000000" aria-hidden="true" id="Folder--Streamline-Heroicons" height="16" width="16">
  <desc>
    Folder Streamline Icon: https://streamlinehq.com
  </desc>
  <path d="M13 14a2 2 0 0 0 2 -2v-3a2 2 0 0 0 -2 -2h-10a2 2 0 0 0 -2 2V12a2 2 0 0 0 2 2h10Zm-12 -7.235999999999999V4a2 2 0 0 1 2 -2h3.5859999999999994a1.5 1.5 0 0 1 1.06 0.43933333333333335l1.4146666666666665 1.414c0.09333333333333334 0.09399999999999999 0.22066666666666668 0.14666666666666667 0.35333333333333333 0.14666666666666667H13a2 2 0 0 1 2 2v0.7639999999999999A2.988666666666666 2.988666666666666 0 0 0 13 6h-10a2.988666666666666 2.988666666666666 0 0 0 -2 0.7639999999999999Z" stroke-width="0.6667"></path>
</svg>