<svg xmlns="http://www.w3.org/2000/svg" fill="none" viewBox="0 0 24 24" id="Work--Streamline-Outlined-Material" height="24" width="24">
  <desc>
    Work Streamline Icon: https://streamlinehq.com
  </desc>
  <path fill="#ff2400" d="M3.5 21c-0.4 0 -0.75 -0.15 -1.05 -0.45 -0.3 -0.3 -0.45 -0.65 -0.45 -1.05V7.5c0 -0.4 0.15 -0.75 0.45 -1.05 0.3 -0.3 0.65 -0.45 1.05 -0.45h4.5V3.5c0 -0.4 0.15 -0.75 0.45 -1.05 0.3 -0.3 0.65 -0.45 1.05 -0.45h5c0.4 0 0.75 0.15 1.05 0.45 0.3 0.3 0.45 0.65 0.45 1.05v2.5h4.5c0.4 0 0.75 0.15 1.05 0.45 0.3 0.3 0.45 0.65 0.45 1.05v12c0 0.4 -0.15 0.75 -0.45 1.05 -0.3 0.3 -0.65 0.45 -1.05 0.45H3.5Zm0 -1.5h17V7.5H3.5v12Zm6 -13.5h5V3.5H9.5v2.5Z" stroke-width="0.5"></path>
</svg> 