<svg xmlns="http://www.w3.org/2000/svg" fill="none" viewBox="0 0 24 24" id="Distance--Streamline-Outlined-Material" height="24" width="24">
  <desc>
    Distance Streamline Icon: https://streamlinehq.com
  </desc>
  <path fill="#f0f0f0" d="M12 22c-1.76665 0 -3.20835 -0.25835 -4.325 -0.775C6.55835 20.70835 6 20.05 6 19.25c0 -0.43335 0.19165 -0.84585 0.575 -1.2375 0.38335 -0.39165 0.90835 -0.7125 1.575 -0.9625l1.125 1.05c-0.33335 0.08335 -0.65835 0.2375 -0.975 0.4625 -0.31665 0.225 -0.59165 0.45415 -0.825 0.6875 0.28335 0.33335 0.87085 0.625 1.7625 0.875 0.89165 0.25 1.8125 0.375 2.7625 0.375 0.95 0 1.875 -0.125 2.775 -0.375 0.9 -0.25 1.49165 -0.54165 1.775 -0.875 -0.23335 -0.25 -0.525 -0.48335 -0.875 -0.7 -0.35 -0.21665 -0.69165 -0.36665 -1.025 -0.45l1.15 -1.05c0.7 0.25 1.24165 0.57085 1.625 0.9625 0.38335 0.39165 0.575 0.80415 0.575 1.2375 0 0.8 -0.55835 1.45835 -1.675 1.975S13.76665 22 12 22Zm0.025 -4.875c1.81665 -1.35 3.18335 -2.71665 4.1 -4.1C17.04165 11.64165 17.5 10.35 17.5 9.15c0 -1.86665 -0.59165 -3.275 -1.775 -4.225C14.54165 3.975 13.3 3.5 12 3.5c-1.28335 0 -2.52085 0.475 -3.7125 1.425C7.09585 5.875 6.5 7.28335 6.5 9.15c0 1.21665 0.45835 2.48335 1.375 3.8 0.91665 1.31665 2.3 2.70835 4.15 4.175ZM12 19c-2.33335 -1.73335 -4.08335 -3.41665 -5.25 -5.05 -1.16665 -1.63335 -1.75 -3.23335 -1.75 -4.8 0 -1.18335 0.2125 -2.22085 0.6375 -3.1125 0.425 -0.89165 0.975 -1.6375 1.65 -2.2375 0.675 -0.6 1.425 -1.05 2.25 -1.35C10.3625 2.15 11.18335 2 12 2c0.81665 0 1.64165 0.15 2.475 0.45 0.83335 0.3 1.58335 0.75 2.25 1.35 0.66665 0.6 1.2125 1.34585 1.6375 2.2375C18.7875 6.92915 19 7.96665 19 9.15c0 1.56665 -0.57915 3.16665 -1.7375 4.8C16.10415 15.58335 14.35 17.26665 12 19Zm0 -8c0.55 0 1.02085 -0.19585 1.4125 -0.5875C13.80415 10.02085 14 9.55 14 9s-0.19585 -1.02085 -0.5875 -1.4125C13.02085 7.19585 12.55 7 12 7s-1.02085 0.19585 -1.4125 0.5875C10.19585 7.97915 10 8.45 10 9s0.19585 1.02085 0.5875 1.4125C10.97915 10.80415 11.45 11 12 11Z" stroke-width="0.5"></path>
</svg> 