<?xml version="1.0" encoding="UTF-8" standalone="no"?>
<!-- Created with Inkscape (http://www.inkscape.org/) -->

<svg
   xmlns:dc="http://purl.org/dc/elements/1.1/"
   xmlns:cc="http://creativecommons.org/ns#"
   xmlns:rdf="http://www.w3.org/1999/02/22-rdf-syntax-ns#"
   xmlns:svg="http://www.w3.org/2000/svg"
   xmlns="http://www.w3.org/2000/svg"
   xmlns:sodipodi="http://sodipodi.sourceforge.net/DTD/sodipodi-0.dtd"
   xmlns:inkscape="http://www.inkscape.org/namespaces/inkscape"
   width="1478.3163"
   height="269.11536"
   viewBox="0 0 391.13784 71.20344"
   version="1.1"
   id="svg1497"
   sodipodi:docname="pf-logo-horizontal-long-no-bg-white-fg.svg"
   inkscape:version="0.92.5 (2060ec1f9f, 2020-04-08)">
  <defs
     id="defs1491" />
  <sodipodi:namedview
     id="base"
     pagecolor="#ff0000"
     bordercolor="#ff0000"
     borderopacity="1.0"
     inkscape:pageopacity="0.0"
     inkscape:pageshadow="2"
     inkscape:zoom="0.7"
     inkscape:cx="658.22576"
     inkscape:cy="79.744473"
     inkscape:document-units="mm"
     inkscape:current-layer="layer1"
     showgrid="false"
     units="px"
     fit-margin-top="5"
     fit-margin-bottom="5"
     fit-margin-left="5"
     fit-margin-right="5"
     inkscape:window-width="1848"
     inkscape:window-height="1016"
     inkscape:window-x="72"
     inkscape:window-y="27"
     inkscape:window-maximized="1"
     inkscape:pagecheckerboard="true" />
  <metadata
     id="metadata1494">
    <rdf:RDF>
      <cc:Work
         rdf:about="">
        <dc:format>image/svg+xml</dc:format>
        <dc:type
           rdf:resource="http://purl.org/dc/dcmitype/StillImage" />
        <dc:title />
      </cc:Work>
    </rdf:RDF>
  </metadata>
  <g
     inkscape:label="Layer 1"
     inkscape:groupmode="layer"
     id="layer1"
     transform="translate(103.34274,-54.267327)">
    <path
       class="fil1"
       d="m 18.248198,76.652644 h 4.7648 v 20.724808 h -4.7648 z m 149.042392,8.3368 h 8e-4 v 0 h 1.9888 v -3.508 h -15.744 v -4.7656 h 20.5656 c 0,4.405608 0,8.6344 0,13.0392 h -0.056 -4.7016 l 3.448,8.003208 h -5.1888 l -3.44888,-8.003208 h -10.61916 v -4.7656 z m 15.5416,-8.3992 h 19.124 v 4.4528 h -14.3264 c 0,9.520008 0,2.6312 0,12.068808 h 14.3264 v 4.4528 h -19.124 z m 27.5864,0 h 19.1248 v 4.4528 h -2.4552 -11.8728 -4.7968 z m 4.7968,8.5592 h 11.8728 1.6088 v 3.918408 h -13.4816 v 4.044 h 14.328 v 4.4528 h -19.1248 V 85.149444 Z m -69.79836,-3.668 v 11.302408 4.7648 h -4.7664 -12.75764 -4.76478 v -4.7648 -11.302408 -4.7656 h 4.76478 12.75764 4.7664 z m -4.7664,11.302408 V 81.481444 H 127.89299 V 92.783852 Z M 46.763398,85.149444 v -3.668 h -10.984 v 3.668 z m 4.7656,-3.668 v 3.668 h 0.056 v 4.765608 h -0.056 -4.7656 -10.984 v 7.6336 H 31.013 V 76.715844 h 2.339998 2.4264 H 51.585 v 4.7656 z m -45.9887998,3.668 v -3.668 h -10.984808 v 3.668 z m 4.7655998,-3.668 v 3.668 h 0.0552 v 4.765608 h -0.0552 -4.7655998 -10.984808 v 7.6336 H -10.21021 V 76.715844 h 2.3408002 2.4248 15.8056078 v 4.7656 z m 48.376,-4.8912 h 19.124808 v 4.4528 h -2.344 -11.984 -4.796808 z m 4.796808,8.5592 h 11.984 1.4976 v 3.918408 h -13.4816 v 4.044 h 14.328 v 4.4528 H 58.681798 V 85.149444 Z m 52.205604,-8.4032 v 4.4528 h -13.4816 v 3.9504 h 12.76 v 4.452 h -12.76 v 7.842408 l -4.796004,0.0112 V 76.746244 Z m 142.10158,-0.3752 h 7.2264 l 9.6928,21.079208 h -5.392 c -3.5928,-7.7896 -3.576,-7.76 -7.8072,-17.024008 -3.46,7.471208 -5.072,10.878408 -7.7904,17.024008 h -5.4664 z m 23.9216,0.2816 h 4.7648 v 20.724808 h -4.7648 z"
       id="path21"
       inkscape:connector-curvature="0"
       style="clip-rule:evenodd;fill:#ff0000;fill-rule:nonzero;stroke-width:0.08;image-rendering:optimizeQuality;shape-rendering:geometricPrecision;text-rendering:geometricPrecision;fill-opacity:1" />
    <path
       class="fil0"
       d="m -102.01982,55.594244 h 35.531204 6.258398 1.82 l 9.4536,16.8656 -6.584,11.8048 h -0.004 l -5.7624,10.326408 5.077592,9.083198 4.608808,8.2784 -6.783198,12.1952 -8.566408,-15.4288 -13.612001,-24.372006 h -5.427176 l -6.6856,-11.828 h 5.5112 8.4808 5.0576 l 5.546401,9.9224 5.0928,-9.088 0.4976,-0.888 -2.828,-5.044 h -30.070401 z m 58.825602,16.9248 -7.9128,14.156008 -3.2824,5.8776 -1.137598,2.0248 6.795198,12.181598 8.184,-14.712798 0.1808,-0.3264 4.101598,-7.374408 h 5.5824 l 6.600808,-11.8264 h -14.420006 z m 28.710408,-16.9288 h -38.077608 l 6.6072,11.8264 h 24.870408 l 6.144,-11.0104 z"
       id="path23"
       inkscape:connector-curvature="0"
       style="clip-rule:evenodd;fill:#ff0000;fill-rule:evenodd;stroke-width:0.08;image-rendering:optimizeQuality;shape-rendering:geometricPrecision;text-rendering:geometricPrecision;fill-opacity:1" />
  </g>
</svg>
